<svg width="444" height="410" viewBox="0 0 444 410" fill="none" xmlns="http://www.w3.org/2000/svg">
<path d="M300.598 97.4302H298.344V35.717C298.344 26.2442 294.581 17.1595 287.883 10.4613C281.185 3.76303 272.1 0 262.627 0H131.879C122.406 0 113.322 3.76303 106.623 10.4613C99.9251 17.1595 96.162 26.2442 96.162 35.717V374.281C96.162 383.754 99.9251 392.839 106.623 399.537C113.322 406.235 122.406 409.998 131.879 409.998H262.627C272.1 409.998 281.185 406.235 287.883 399.537C294.581 392.839 298.344 383.754 298.344 374.281V141.359H300.598V97.4302Z" fill="#26333A"/>
<path d="M264.068 9.29144H247.002C247.787 11.2158 248.087 13.3038 247.875 15.3714C247.663 17.439 246.946 19.4227 245.786 21.1478C244.627 22.8729 243.061 24.2864 241.227 25.2637C239.393 26.2411 237.346 26.7522 235.268 26.7522H160.364C158.286 26.752 156.24 26.2408 154.406 25.2635C152.572 24.2862 151.006 22.8729 149.847 21.1481C148.688 19.4232 147.971 17.4398 147.759 15.3724C147.547 13.3051 147.846 11.2174 148.631 9.29313H132.688C125.614 9.29313 118.829 12.1034 113.827 17.1057C108.824 22.1081 106.014 28.8927 106.014 35.9671V374.033C106.014 381.107 108.824 387.892 113.827 392.894C118.829 397.896 125.614 400.707 132.688 400.707H264.063C271.138 400.707 277.922 397.896 282.925 392.894C287.927 387.892 290.737 381.107 290.737 374.033V35.9654C290.737 28.891 287.927 22.1064 282.925 17.1041C277.922 12.1017 271.138 9.29144 264.063 9.29144H264.068Z" fill="white"/>
<path d="M279.901 274.816H122.375C121.602 274.815 120.86 274.508 120.313 273.961C119.767 273.414 119.459 272.673 119.458 271.899V232.824C119.459 232.051 119.767 231.309 120.313 230.762C120.86 230.215 121.602 229.908 122.375 229.907H279.901C280.674 229.908 281.416 230.215 281.963 230.762C282.51 231.309 282.817 232.051 282.818 232.824V271.9C282.817 272.673 282.509 273.414 281.963 273.961C281.416 274.508 280.674 274.815 279.901 274.816ZM122.375 231.074C121.911 231.074 121.466 231.259 121.138 231.587C120.81 231.915 120.625 232.36 120.625 232.824V271.9C120.625 272.364 120.81 272.809 121.138 273.137C121.466 273.465 121.911 273.65 122.375 273.65H279.901C280.365 273.65 280.81 273.465 281.138 273.137C281.466 272.809 281.651 272.364 281.651 271.9V232.824C281.651 232.36 281.466 231.915 281.138 231.587C280.81 231.259 280.365 231.074 279.901 231.074H122.375Z" fill="#EF4E40"/>
<path d="M142.795 264.613C149.561 264.613 155.047 259.127 155.047 252.361C155.047 245.594 149.561 240.109 142.795 240.109C136.028 240.109 130.543 245.594 130.543 252.361C130.543 259.127 136.028 264.613 142.795 264.613Z" fill="#EF4E40"/>
<path d="M171.091 244.194C170.82 244.189 170.551 244.239 170.299 244.339C170.048 244.44 169.818 244.59 169.625 244.78C169.432 244.97 169.278 245.196 169.174 245.446C169.069 245.696 169.015 245.965 169.015 246.236C169.015 246.507 169.069 246.775 169.174 247.025C169.278 247.275 169.432 247.501 169.625 247.692C169.818 247.882 170.048 248.031 170.299 248.132C170.551 248.232 170.82 248.282 171.091 248.277H267.36C267.628 248.283 267.895 248.235 268.145 248.136C268.395 248.038 268.623 247.892 268.817 247.705C269.01 247.518 269.164 247.296 269.271 247.049C269.378 246.803 269.436 246.538 269.44 246.269C269.445 246.001 269.396 245.734 269.297 245.484C269.198 245.234 269.051 245.006 268.864 244.814C268.677 244.621 268.454 244.467 268.207 244.36C267.96 244.254 267.695 244.197 267.427 244.194H171.092H171.091Z" fill="#E6E6E6"/>
<path d="M171.091 256.446C170.55 256.446 170.03 256.661 169.647 257.044C169.264 257.427 169.049 257.946 169.049 258.488C169.049 259.029 169.264 259.549 169.647 259.932C170.03 260.315 170.55 260.53 171.091 260.53H267.36C267.628 260.535 267.895 260.487 268.145 260.389C268.395 260.291 268.623 260.144 268.817 259.957C269.01 259.771 269.164 259.548 269.271 259.302C269.378 259.055 269.436 258.79 269.44 258.522C269.445 258.253 269.396 257.986 269.297 257.736C269.198 257.487 269.051 257.259 268.864 257.066C268.677 256.873 268.454 256.719 268.207 256.613C267.96 256.507 267.695 256.45 267.427 256.446H171.092L171.091 256.446Z" fill="#E6E6E6"/>
<path d="M279.901 340.16H122.375C121.602 340.159 120.86 339.852 120.313 339.305C119.767 338.758 119.459 338.017 119.458 337.243V298.168C119.459 297.395 119.767 296.653 120.313 296.106C120.86 295.56 121.602 295.252 122.375 295.251H279.901C280.674 295.252 281.416 295.56 281.963 296.106C282.51 296.653 282.817 297.395 282.818 298.168V337.244C282.817 338.017 282.509 338.758 281.963 339.305C281.416 339.852 280.674 340.159 279.901 340.16ZM122.375 296.418C121.911 296.418 121.466 296.603 121.138 296.931C120.81 297.259 120.625 297.704 120.625 298.168V337.244C120.625 337.708 120.81 338.153 121.138 338.481C121.466 338.809 121.911 338.994 122.375 338.994H279.901C280.365 338.994 280.81 338.809 281.138 338.481C281.466 338.153 281.651 337.708 281.651 337.244V298.168C281.651 297.704 281.466 297.259 281.138 296.931C280.81 296.603 280.365 296.418 279.901 296.418H122.375Z" fill="#EF4E40"/>
<path d="M142.795 329.957C149.561 329.957 155.047 324.472 155.047 317.705C155.047 310.939 149.561 305.453 142.795 305.453C136.028 305.453 130.543 310.939 130.543 317.705C130.543 324.472 136.028 329.957 142.795 329.957Z" fill="#EF4E40"/>
<path d="M171.091 309.538C170.55 309.538 170.03 309.753 169.647 310.136C169.264 310.519 169.049 311.038 169.049 311.58C169.049 312.122 169.264 312.641 169.647 313.024C170.03 313.407 170.55 313.622 171.091 313.622H267.36C267.628 313.627 267.895 313.579 268.145 313.481C268.395 313.383 268.623 313.236 268.817 313.05C269.01 312.863 269.164 312.64 269.271 312.394C269.378 312.148 269.436 311.883 269.44 311.614C269.445 311.345 269.396 311.079 269.297 310.829C269.198 310.579 269.051 310.351 268.864 310.158C268.677 309.966 268.454 309.812 268.207 309.705C267.96 309.599 267.695 309.542 267.427 309.538H171.092L171.091 309.538Z" fill="#E6E6E6"/>
<path d="M171.091 321.79C170.55 321.79 170.03 322.005 169.647 322.388C169.264 322.771 169.049 323.29 169.049 323.832C169.049 324.373 169.264 324.893 169.647 325.276C170.03 325.659 170.55 325.874 171.091 325.874H267.36C267.628 325.879 267.895 325.831 268.145 325.733C268.395 325.635 268.623 325.488 268.817 325.302C269.01 325.115 269.164 324.892 269.271 324.646C269.378 324.399 269.436 324.134 269.44 323.866C269.445 323.597 269.396 323.33 269.297 323.081C269.198 322.831 269.051 322.603 268.864 322.41C268.677 322.217 268.454 322.063 268.207 321.957C267.96 321.851 267.695 321.794 267.427 321.79H171.092L171.091 321.79Z" fill="#E6E6E6"/>
<path d="M197.823 193.729C183.13 193.735 169.035 187.904 158.641 177.519C148.247 167.133 142.404 153.044 142.397 138.351V138.305C142.397 138.189 142.397 138.066 142.404 137.95C142.573 107.597 167.435 82.8786 197.823 82.8786C212.523 82.8778 226.621 88.7165 237.016 99.1102C247.411 109.504 253.251 123.601 253.252 138.301C253.252 153.001 247.414 167.099 237.02 177.494C226.626 187.889 212.529 193.729 197.829 193.73H197.823V193.729ZM197.823 84.0431C183.498 84.0751 169.765 89.7587 159.606 99.8588C149.448 109.959 143.686 123.66 143.572 137.984C143.565 138.108 143.565 138.209 143.565 138.302C143.564 149.035 146.745 159.527 152.707 168.452C158.669 177.377 167.144 184.333 177.06 188.442C186.975 192.55 197.887 193.625 208.413 191.532C218.94 189.439 228.61 184.272 236.2 176.683C243.79 169.094 248.959 159.425 251.053 148.898C253.148 138.371 252.073 127.46 247.966 117.544C243.859 107.628 236.904 99.152 227.98 93.1889C219.056 87.2259 208.564 84.0431 197.831 84.0431H197.823Z" fill="#EF4E40"/>
<path d="M226.543 161.771H170.425C170.354 161.772 170.284 161.767 170.215 161.755L196.756 115.784C196.918 115.498 197.153 115.26 197.437 115.095C197.722 114.929 198.045 114.842 198.373 114.842C198.702 114.842 199.025 114.929 199.309 115.095C199.594 115.26 199.829 115.498 199.991 115.784L217.803 146.636L218.657 148.112L226.543 161.771Z" fill="#EF4E40"/>
<path d="M359.568 88.159C359.568 88.7017 359.514 89.243 359.405 89.7747C357.922 90.4038 356.327 90.7281 354.715 90.7281C353.104 90.7281 351.509 90.4038 350.025 89.7747C349.917 89.243 349.862 88.7017 349.862 88.159C349.862 85.3388 351.298 82.9552 353.276 82.1586C352.487 81.8265 351.836 81.2312 351.435 80.474C351.034 79.7167 350.908 78.8441 351.077 78.0042C351.247 77.1643 351.702 76.4089 352.365 75.8663C353.028 75.3236 353.858 75.0271 354.715 75.0271C355.572 75.0271 356.402 75.3236 357.065 75.8663C357.728 76.4089 358.183 77.1643 358.353 78.0042C358.522 78.8441 358.395 79.7167 357.995 80.474C357.594 81.2312 356.943 81.8265 356.153 82.1586C358.132 82.9552 359.568 85.3388 359.568 88.159Z" fill="#EF4E40"/>
<path d="M42.5793 208.943L88.8429 255.571H110.684V256.304H88.537L88.4294 256.195L42.0582 209.457L42.5793 208.943Z" fill="#EF4E40"/>
<path d="M27.2626 217.535C24.6553 217.536 22.0733 217.024 19.6641 216.027C17.2548 215.03 15.0655 213.569 13.2211 211.726C11.3767 209.883 9.91338 207.695 8.91464 205.286C7.9159 202.878 7.4013 200.296 7.40027 197.689V197.673C7.40027 197.631 7.40027 197.587 7.40027 197.546C7.4253 193.623 8.61147 189.795 10.8091 186.546C13.0068 183.296 16.1176 180.77 19.7491 179.286C23.3806 177.802 27.3702 177.427 31.2147 178.208C35.0592 178.988 38.5865 180.89 41.3516 183.673C44.1168 186.455 45.9959 189.995 46.7521 193.844C47.5083 197.694 47.1076 201.681 45.6006 205.303C44.0936 208.925 41.5478 212.019 38.2843 214.196C35.0207 216.373 31.1856 217.535 27.2626 217.535ZM27.2626 178.228C22.1292 178.239 17.2076 180.276 13.5673 183.896C9.927 187.515 7.86205 192.425 7.8211 197.558C7.8211 197.603 7.8211 197.639 7.8211 197.671C7.82066 201.517 8.9608 205.277 11.0973 208.476C13.2339 211.674 16.2709 214.167 19.8243 215.639C23.3776 217.111 27.2878 217.497 31.0602 216.746C34.8326 215.996 38.2979 214.144 41.0177 211.425C43.7376 208.705 45.59 205.24 46.3405 201.468C47.091 197.696 46.7061 193.785 45.2343 190.232C43.7625 186.678 41.2699 183.641 38.0719 181.504C34.8739 179.367 31.114 178.227 27.2677 178.227L27.2626 178.228Z" fill="#3F3D56"/>
<path d="M42.5793 278.338L88.8429 324.967H110.684V325.699H88.537L88.4294 325.591L42.0582 278.853L42.5793 278.338Z" fill="#EF4E40"/>
<path d="M27.2626 246.688C24.6553 246.687 22.0733 247.2 19.6641 248.196C17.2548 249.193 15.0655 250.655 13.2211 252.498C11.3767 254.34 9.91338 256.529 8.91464 258.937C7.9159 261.345 7.4013 263.927 7.40027 266.534V266.551C7.40027 266.592 7.40027 266.636 7.40027 266.677C7.4253 270.6 8.61147 274.428 10.8091 277.678C13.0068 280.927 16.1176 283.453 19.7491 284.937C23.3806 286.421 27.3702 286.796 31.2147 286.016C35.0592 285.235 38.5865 283.333 41.3516 280.551C44.1168 277.768 45.9959 274.229 46.7521 270.379C47.5083 266.53 47.1076 262.543 45.6006 258.921C44.0936 255.299 41.5478 252.204 38.2843 250.027C35.0207 247.85 31.1856 246.688 27.2626 246.688ZM27.2626 285.995C22.1292 285.984 17.2076 283.947 13.5673 280.328C9.927 276.708 7.86205 271.798 7.8211 266.665C7.8211 266.62 7.8211 266.584 7.8211 266.552C7.82055 262.706 8.96066 258.946 11.0972 255.747C13.2338 252.549 16.2709 250.056 19.8244 248.584C23.3779 247.112 27.2882 246.726 31.0607 247.476C34.8332 248.227 38.2985 250.079 41.0184 252.798C43.7382 255.518 45.5904 258.983 46.3407 262.756C47.0911 266.528 46.7058 270.439 45.2336 273.992C43.7615 277.546 41.2686 280.583 38.0703 282.72C34.872 284.856 31.1118 285.997 27.2655 285.996L27.2626 285.995Z" fill="#3F3D56"/>
<path d="M33.4191 206.824V196.264H31.302V206.824H33.4191Z" fill="#EF4E40"/>
<path d="M28.3223 206.826V188.521H26.2052V206.826H28.3223Z" fill="#EF4E40"/>
<path d="M23.2256 206.826V193.082H21.1085V206.826H23.2256Z" fill="#EF4E40"/>
<path opacity="0.8" d="M21.0026 268.768C22.2272 268.768 23.22 267.775 23.22 266.551C23.22 265.326 22.2272 264.333 21.0026 264.333C19.778 264.333 18.7852 265.326 18.7852 266.551C18.7852 267.775 19.778 268.768 21.0026 268.768Z" fill="#EF4E40"/>
<path opacity="0.4" d="M33.5249 268.768C34.7496 268.768 35.7423 267.775 35.7423 266.551C35.7423 265.326 34.7496 264.333 33.5249 264.333C32.3003 264.333 31.3076 265.326 31.3076 266.551C31.3076 267.775 32.3003 268.768 33.5249 268.768Z" fill="#EF4E40"/>
<path d="M350.383 293.663C350.196 293.747 350.049 293.902 349.975 294.094C349.902 294.286 349.907 294.499 349.99 294.687L353.67 302.949C353.753 303.136 353.908 303.283 354.1 303.357C354.292 303.43 354.505 303.425 354.693 303.342L369.093 296.929C369.28 296.846 369.427 296.691 369.501 296.499C369.574 296.307 369.569 296.094 369.486 295.906L365.806 287.644C365.723 287.456 365.568 287.31 365.376 287.236C365.184 287.162 364.971 287.168 364.783 287.251L350.383 293.663Z" fill="#EF4E40"/>
<path d="M364.668 291.121L353.337 296.167C353.274 296.195 353.203 296.197 353.139 296.172C353.075 296.147 353.023 296.099 352.995 296.036C352.968 295.973 352.966 295.902 352.99 295.838C353.015 295.774 353.064 295.723 353.126 295.695L364.457 290.649C364.52 290.621 364.591 290.619 364.655 290.644C364.719 290.668 364.771 290.717 364.799 290.78C364.827 290.843 364.828 290.914 364.804 290.978C364.779 291.042 364.73 291.093 364.668 291.121L364.668 291.121Z" fill="white"/>
<path d="M365.509 293.01L354.178 298.056C354.115 298.083 354.044 298.085 353.98 298.061C353.916 298.036 353.864 297.987 353.836 297.925C353.809 297.862 353.807 297.791 353.831 297.727C353.856 297.663 353.905 297.611 353.967 297.583L365.298 292.538C365.361 292.51 365.432 292.508 365.496 292.532C365.56 292.557 365.612 292.606 365.64 292.669C365.668 292.731 365.669 292.802 365.645 292.866C365.62 292.93 365.571 292.982 365.509 293.01L365.509 293.01Z" fill="white"/>
<path d="M366.35 294.898L355.019 299.944C354.956 299.971 354.885 299.973 354.821 299.949C354.757 299.924 354.706 299.875 354.678 299.813C354.65 299.75 354.648 299.679 354.673 299.615C354.697 299.551 354.746 299.499 354.809 299.471L366.14 294.426C366.202 294.398 366.274 294.396 366.338 294.421C366.402 294.445 366.453 294.494 366.481 294.557C366.509 294.619 366.511 294.69 366.486 294.754C366.462 294.818 366.413 294.87 366.35 294.898Z" fill="white"/>
<path opacity="0.6" d="M27.2638 268.768C28.4884 268.768 29.4812 267.775 29.4812 266.551C29.4812 265.326 28.4884 264.333 27.2638 264.333C26.0391 264.333 25.0464 265.326 25.0464 266.551C25.0464 267.775 26.0391 268.768 27.2638 268.768Z" fill="#EF4E40"/>
<path d="M427.503 288.871C427.171 288.196 426.992 287.456 426.977 286.703C426.962 285.951 427.112 285.204 427.417 284.516C427.722 283.828 428.175 283.215 428.742 282.721C429.309 282.227 429.978 281.863 430.702 281.655L431.691 263.388L439.331 269.041L437.219 285.521C437.488 286.759 437.293 288.053 436.672 289.158C436.05 290.262 435.046 291.1 433.847 291.513C432.649 291.926 431.342 291.885 430.172 291.397C429.002 290.91 428.052 290.011 427.501 288.87L427.503 288.871Z" fill="#FFB7B7"/>
<path d="M368.305 292.269C368.737 291.653 369.029 290.949 369.159 290.208C369.29 289.467 369.256 288.706 369.061 287.979C368.865 287.252 368.513 286.577 368.029 286.001C367.544 285.425 366.939 284.963 366.257 284.646L368.095 266.445L359.673 270.854L359.219 287.463C358.762 288.645 358.755 289.953 359.199 291.14C359.642 292.327 360.506 293.31 361.626 293.903C362.747 294.496 364.045 294.657 365.276 294.355C366.507 294.054 367.585 293.312 368.305 292.269Z" fill="#FFB7B7"/>
<path d="M413.249 404.166H407.233L404.37 380.956H413.251L413.249 404.166Z" fill="#FFB7B7"/>
<path d="M414.785 402.201H402.934C400.932 402.202 399.013 402.998 397.597 404.413C396.182 405.829 395.386 407.748 395.385 409.75V409.996H414.787L414.785 402.201Z" fill="#2F2E41"/>
<path d="M382.86 400.552L376.976 401.813L369.314 379.719L377.998 377.86L382.86 400.552Z" fill="#FFB7B7"/>
<path d="M383.949 398.31L372.362 400.792C371.392 401 370.473 401.397 369.656 401.96C368.84 402.523 368.142 403.241 367.604 404.074C367.065 404.906 366.695 405.837 366.516 406.812C366.337 407.788 366.352 408.789 366.559 409.759L366.611 409.999L385.582 405.934L383.949 398.31Z" fill="#2F2E41"/>
<path d="M424.099 271.348C424.099 271.348 430.5 291.132 424.231 313.505L417.85 340.306L416.266 399.607L403.344 395.459L398.08 305.008L373.832 346.165L386.595 395.459L371.918 395.937L356.07 342.628L370.004 292.884L372.556 280.76L424.099 271.348Z" fill="#2F2E41"/>
<path d="M371.783 205.642L384.636 198.319L406.87 197.034L422.294 205.131L416.026 248.129C416.026 248.129 427.98 265.286 423.621 276.717C418.242 290.826 371.203 298.186 372.123 284.417C373.575 262.688 375.818 264.187 377.461 253.531C379.264 241.84 366.642 226.849 366.642 226.849L371.783 205.642Z" fill="#EF4E40"/>
<path d="M417.538 209.37L418.971 203.16C418.971 203.16 425.083 203.949 429.319 215.782C433.555 227.616 441.084 252.554 441.084 252.554L440.689 261.614C440.689 261.614 443.591 264.967 441.591 266.498C439.59 268.029 445.207 270.104 442.362 272.282C441.113 273.239 440.167 274.536 439.638 276.018C439.109 277.501 439.019 279.104 439.38 280.636L430.64 277.937L431.283 263.67L427.821 252.424L418.567 224.277L417.538 209.37Z" fill="#EF4E40"/>
<path d="M376.491 210.428L374.544 204.406C374.544 204.406 370.959 202.942 368.312 211.207C365.666 219.473 364.41 240.398 364.41 240.398L359.268 265.338C359.268 265.338 357.347 268.514 358.367 269.424C359.387 270.335 353.881 271.615 357.082 273.301C360.283 274.988 356.806 272.938 358.002 276.783C358.787 279.309 357.982 280.636 357.982 280.636L367.878 278.645L370.577 265.861L376.699 242.092L376.491 210.428Z" fill="#EF4E40"/>
<path d="M395.705 191.625C405.131 191.625 412.773 183.983 412.773 174.556C412.773 165.129 405.131 157.488 395.705 157.488C386.278 157.488 378.636 165.129 378.636 174.556C378.636 183.983 386.278 191.625 395.705 191.625Z" fill="#2F2E41"/>
<path d="M397.458 163.934C401.131 160.209 405.575 157.335 410.479 155.514C413.626 154.347 417.052 153.627 420.343 154.289C423.633 154.952 426.745 157.228 427.664 160.456C428.414 163.096 427.639 165.939 426.474 168.425C425.309 170.91 423.754 173.213 422.812 175.792C421.851 178.423 421.562 181.251 421.972 184.022C422.381 186.792 423.476 189.416 425.156 191.656C426.837 193.896 429.05 195.681 431.596 196.849C434.141 198.016 436.938 198.53 439.732 198.342C436.499 198.776 433.518 200.296 430.358 201.103C427.198 201.91 423.468 201.857 421.119 199.592C418.634 197.197 418.584 193.302 418.704 189.853L419.24 174.469C419.331 171.854 419.409 169.156 418.466 166.715C417.523 164.274 415.282 162.137 412.664 162.159C410.681 162.176 408.925 163.377 407.335 164.562C405.745 165.746 404.062 167.011 402.086 167.186C400.111 167.362 397.856 165.901 398.004 163.923L397.458 163.934Z" fill="#2F2E41"/>
<path d="M405.013 174.804C401.685 168.715 394.051 166.477 387.962 169.806C381.874 173.134 379.636 180.768 382.964 186.857C386.292 192.945 393.926 195.183 400.015 191.855C406.104 188.526 408.341 180.892 405.013 174.804Z" fill="#FFB7B7"/>
<path d="M376.318 179.879H394.458L394.644 177.274L395.574 179.879H398.368L398.736 174.716L400.58 179.879H405.988V179.623C405.984 176.029 404.555 172.583 402.013 170.042C399.472 167.501 396.026 166.071 392.432 166.067H389.874C386.28 166.071 382.835 167.501 380.293 170.042C377.752 172.583 376.322 176.029 376.318 179.623L376.318 179.879Z" fill="#2F2E41"/>
<path d="M403.248 189.242L409.873 182.609L410.99 167.928H396.365L396.727 168.289C401.765 173.32 407.203 180.703 403.248 189.242Z" fill="#2F2E41"/>
<path d="M433.492 410H0.563359C0.413947 410 0.270654 409.941 0.165004 409.835C0.0593533 409.729 0 409.586 0 409.437C0 409.287 0.0593533 409.144 0.165004 409.038C0.270654 408.933 0.413947 408.873 0.563359 408.873H433.492C433.641 408.873 433.785 408.933 433.89 409.038C433.996 409.144 434.055 409.287 434.055 409.437C434.055 409.586 433.996 409.729 433.89 409.835C433.785 409.941 433.641 410 433.492 410Z" fill="#E6E6E6"/>
<path d="M43.964 393.986C45.1326 394.397 46.3874 394.5 47.6075 394.286C48.8275 394.071 49.9715 393.545 50.9294 392.759C53.3687 390.712 54.1338 387.338 54.7563 384.214L56.5973 374.975L52.7434 377.629C49.9717 379.538 47.138 381.507 45.2192 384.271C43.3004 387.035 42.4627 390.806 44.0046 393.8" fill="#F48379"/>
<path d="M44.5589 405.815C44.0739 402.281 43.5747 398.701 43.915 395.13C44.1363 391.944 45.2603 388.888 47.1554 386.319C48.2012 384.973 49.4738 383.819 50.9159 382.911C51.2922 382.674 51.6381 383.27 51.2635 383.506C48.7681 385.083 46.8381 387.411 45.7516 390.156C44.5516 393.208 44.3589 396.536 44.5657 399.778C44.6907 401.738 44.9555 403.686 45.2231 405.632C45.2441 405.72 45.2309 405.812 45.1863 405.891C45.1416 405.969 45.0688 406.028 44.9826 406.055C44.8945 406.079 44.8006 406.067 44.7213 406.022C44.642 405.977 44.5837 405.903 44.5589 405.815Z" fill="#F2F2F2"/>
<path d="M48.0506 400.144C48.5518 400.906 49.2408 401.526 50.0511 401.944C50.8614 402.362 51.7657 402.565 52.6769 402.532C55.0188 402.419 56.9714 400.786 58.7291 399.235L63.9278 394.645L60.4873 394.48C58.013 394.362 55.4734 394.252 53.1186 395.015C50.7637 395.777 48.5886 397.614 48.1576 400.053" fill="#F48379"/>
<path d="M43.1877 407.846C45.5228 403.714 48.2314 399.122 53.0713 397.654C54.4169 397.247 55.8279 397.102 57.2283 397.225C57.6694 397.263 57.5595 397.943 57.119 397.905C54.7716 397.71 52.4287 398.33 50.4849 399.661C48.6574 400.987 47.1082 402.659 45.9251 404.582C45.1702 405.731 44.4936 406.93 43.817 408.127C43.6012 408.51 42.9691 408.234 43.1877 407.846Z" fill="#F2F2F2"/>
<path d="M354.773 102.739C352.166 102.74 349.584 102.228 347.175 101.231C344.765 100.234 342.576 98.7728 340.732 96.93C338.887 95.0871 337.424 92.8989 336.425 90.4905C335.427 88.0821 334.912 85.5005 334.911 82.8932V82.8769C334.911 82.8352 334.911 82.7913 334.911 82.7501C334.936 78.8272 336.122 74.9996 338.32 71.75C340.517 68.5003 343.628 65.9743 347.26 64.4903C350.891 63.0064 354.881 62.6311 358.725 63.4118C362.57 64.1924 366.097 66.094 368.862 68.8768C371.627 71.6596 373.507 75.1989 374.263 79.0483C375.019 82.8977 374.618 86.8849 373.111 90.5069C371.604 94.1289 369.058 97.2235 365.795 99.4004C362.531 101.577 358.696 102.739 354.773 102.739ZM354.773 63.432C349.64 63.4435 344.718 65.4804 341.078 69.0999C337.438 72.7194 335.373 77.6292 335.332 82.7625C335.332 82.807 335.332 82.8431 335.332 82.8752C335.331 86.7215 336.471 90.4815 338.608 93.6798C340.745 96.878 343.782 99.3709 347.335 100.843C350.888 102.315 354.798 102.701 358.571 101.951C362.343 101.201 365.808 99.3487 368.528 96.6291C371.248 93.9095 373.101 90.4445 373.851 86.6721C374.602 82.8998 374.217 78.9896 372.745 75.4361C371.273 71.8826 368.781 68.8453 365.583 66.7084C362.384 64.5714 358.625 63.4309 354.778 63.4309L354.773 63.432Z" fill="#3F3D56"/>
<path d="M334.389 90.9409L288.126 137.57H266.284V138.302H288.432L288.539 138.193L334.91 91.4558L334.389 90.9409Z" fill="#EF4E40"/>
</svg>
